<?xml version="1.0" encoding="UTF-8" standalone="no"?>
<!DOCTYPE svg PUBLIC "-//W3C//DTD SVG 1.1//EN" "http://www.w3.org/Graphics/SVG/1.1/DTD/svg11.dtd">
<svg width="100%" height="100%" viewBox="0 0 50 50" version="1.1" xmlns="http://www.w3.org/2000/svg" xmlns:xlink="http://www.w3.org/1999/xlink" xml:space="preserve" style="fill-rule:evenodd;clip-rule:evenodd;stroke-linecap:round;stroke-linejoin:round;stroke-miterlimit:1.5;">
    <g transform="matrix(0.923077,0,0,0.923077,2.84615,-0.230769)">
        <circle cx="24" cy="36" r="13" style="fill:url(#_Radial1);"/>
        <path d="M24.223,18.668L24.445,18.672L24.667,18.679L24.888,18.689L25.109,18.702L25.329,18.717L25.548,18.735L25.767,18.756L25.985,18.78L26.202,18.806L26.418,18.835L26.634,18.866L26.849,18.901L27.063,18.937L27.276,18.977L27.488,19.019L27.7,19.064L27.91,19.111L28.12,19.161L28.328,19.213L28.536,19.268L28.742,19.325L28.948,19.385L29.152,19.447L29.355,19.512L29.558,19.579L29.759,19.649L29.959,19.721L30.158,19.795L30.355,19.871L30.552,19.95L30.747,20.032L30.941,20.115L31.134,20.201L31.326,20.289L31.516,20.379L31.705,20.472L31.893,20.567L32.079,20.664L32.264,20.763L32.447,20.864L32.63,20.967L32.81,21.073L32.99,21.18L33.168,21.29L33.344,21.402L33.519,21.515L33.693,21.631L33.865,21.749L34.035,21.869L34.204,21.99L34.372,22.114L34.538,22.24L34.702,22.367L34.865,22.497L35.026,22.628L35.185,22.761L35.343,22.896L35.499,23.033L35.654,23.172L35.807,23.313L35.958,23.455L36.107,23.599L36.255,23.745L36.401,23.893L36.545,24.042L36.687,24.193L36.828,24.346L36.967,24.501L37.104,24.657L37.239,24.815L37.372,24.974L37.503,25.135L37.633,25.298L37.76,25.462L37.886,25.628L38.01,25.796L38.131,25.965L38.251,26.135L38.369,26.307L38.485,26.481L38.598,26.656L38.71,26.832L38.82,27.01L38.927,27.19L39.033,27.37L39.136,27.553L39.237,27.736L39.336,27.921L39.433,28.107L39.528,28.295L39.621,28.484L39.711,28.674L39.799,28.866L39.885,29.059L39.968,29.253L40.05,29.448L40.129,29.645L40.205,29.842L40.279,30.041L40.351,30.241L40.421,30.442L40.488,30.645L40.553,30.848L40.615,31.052L40.675,31.258L40.732,31.464L40.787,31.672L40.839,31.881L40.889,32.09L40.936,32.3L40.981,32.512L41.023,32.724L41.063,32.937L41.099,33.151L41.134,33.366L41.165,33.582L41.194,33.798L41.22,34.015L41.244,34.233L41.265,34.452L41.283,34.671L41.298,34.891L41.311,35.112L41.321,35.333L41.328,35.555L41.332,35.777L41.333,36L41.332,36.223L41.328,36.445L41.321,36.667L41.311,36.888L41.298,37.109L41.283,37.329L41.265,37.548L41.244,37.767L41.22,37.985L41.194,38.202L41.165,38.418L41.134,38.634L41.099,38.849L41.063,39.063L41.023,39.276L40.981,39.488L40.936,39.7L40.889,39.91L40.839,40.119L40.787,40.328L40.732,40.536L40.675,40.742L40.615,40.948L40.553,41.152L40.488,41.355L40.421,41.558L40.351,41.759L40.279,41.959L40.205,42.158L40.129,42.355L40.05,42.552L39.968,42.747L39.885,42.941L39.799,43.134L39.711,43.326L39.621,43.516L39.528,43.705L39.433,43.893L39.336,44.079L39.237,44.264L39.136,44.447L39.033,44.63L38.927,44.81L38.82,44.99L38.71,45.168L38.598,45.344L38.485,45.519L38.369,45.693L38.251,45.865L38.131,46.035L38.01,46.204L37.886,46.372L37.76,46.538L37.633,46.702L37.503,46.865L37.372,47.026L37.239,47.185L37.104,47.343L36.967,47.499L36.828,47.654L36.687,47.807L36.545,47.958L36.401,48.107L36.255,48.255L36.107,48.401L35.958,48.545L35.807,48.687L35.654,48.828L35.499,48.967L35.343,49.104L35.185,49.239L35.026,49.372L34.865,49.503L34.702,49.633L34.538,49.76L34.372,49.886L34.204,50.01L34.035,50.131L33.865,50.251L33.693,50.369L33.519,50.485L33.344,50.598L33.168,50.71L32.99,50.82L32.81,50.927L32.63,51.033L32.447,51.136L32.264,51.237L32.079,51.336L31.893,51.433L31.705,51.528L31.516,51.621L31.326,51.711L31.134,51.799L30.941,51.885L30.747,51.968L30.552,52.05L30.355,52.129L30.158,52.205L29.959,52.279L29.759,52.351L29.558,52.421L29.355,52.488L29.152,52.553L28.948,52.615L28.742,52.675L28.536,52.732L28.328,52.787L28.12,52.839L27.91,52.889L27.7,52.936L27.488,52.981L27.276,53.023L27.063,53.063L26.849,53.099L26.634,53.134L26.418,53.165L26.202,53.194L25.985,53.22L25.767,53.244L25.548,53.265L25.329,53.283L25.109,53.298L24.888,53.311L24.667,53.321L24.445,53.328L24.223,53.332L24,53.333L23.777,53.332L23.555,53.328L23.333,53.321L23.112,53.311L22.891,53.298L22.671,53.283L22.452,53.265L22.233,53.244L22.015,53.22L21.798,53.194L21.582,53.165L21.366,53.134L21.151,53.099L20.937,53.063L20.724,53.023L20.512,52.981L20.3,52.936L20.09,52.889L19.88,52.839L19.672,52.787L19.464,52.732L19.258,52.675L19.052,52.615L18.848,52.553L18.645,52.488L18.442,52.421L18.241,52.351L18.041,52.279L17.842,52.205L17.645,52.129L17.448,52.05L17.253,51.968L17.059,51.885L16.866,51.799L16.674,51.711L16.484,51.621L16.295,51.528L16.107,51.433L15.921,51.336L15.736,51.237L15.553,51.136L15.37,51.033L15.19,50.927L15.01,50.82L14.832,50.71L14.656,50.598L14.481,50.485L14.307,50.369L14.135,50.251L13.965,50.131L13.796,50.01L13.628,49.886L13.462,49.76L13.298,49.633L13.135,49.503L12.974,49.372L12.815,49.239L12.657,49.104L12.501,48.967L12.346,48.828L12.193,48.687L12.042,48.545L11.893,48.401L11.745,48.255L11.599,48.107L11.455,47.958L11.313,47.807L11.172,47.654L11.033,47.499L10.896,47.343L10.761,47.185L10.628,47.026L10.497,46.865L10.367,46.702L10.24,46.538L10.114,46.372L9.99,46.204L9.869,46.035L9.749,45.865L9.631,45.693L9.515,45.519L9.402,45.344L9.29,45.168L9.18,44.99L9.073,44.81L8.967,44.63L8.864,44.447L8.763,44.264L8.664,44.079L8.567,43.893L8.472,43.705L8.379,43.516L8.289,43.326L8.201,43.134L8.115,42.941L8.032,42.747L7.95,42.552L7.871,42.355L7.795,42.158L7.721,41.959L7.649,41.759L7.579,41.558L7.512,41.355L7.447,41.152L7.385,40.948L7.325,40.742L7.268,40.536L7.213,40.328L7.161,40.12L7.111,39.91L7.064,39.7L7.019,39.488L6.977,39.276L6.937,39.063L6.901,38.849L6.866,38.634L6.835,38.418L6.806,38.202L6.78,37.985L6.756,37.767L6.735,37.548L6.717,37.329L6.702,37.109L6.689,36.888L6.679,36.667L6.672,36.445L6.668,36.223L6.667,36L6.668,35.777L6.672,35.555L6.679,35.333L6.689,35.112L6.702,34.891L6.717,34.671L6.735,34.452L6.756,34.233L6.78,34.015L6.806,33.798L6.835,33.582L6.866,33.366L6.901,33.151L6.937,32.937L6.977,32.724L7.019,32.512L7.064,32.3L7.111,32.09L7.161,31.88L7.213,31.672L7.268,31.464L7.325,31.258L7.385,31.052L7.447,30.848L7.512,30.645L7.579,30.442L7.649,30.241L7.721,30.041L7.795,29.842L7.871,29.645L7.95,29.448L8.032,29.253L8.115,29.059L8.201,28.866L8.289,28.674L8.379,28.484L8.472,28.295L8.567,28.107L8.664,27.921L8.763,27.736L8.864,27.553L8.967,27.37L9.073,27.19L9.18,27.01L9.29,26.832L9.402,26.656L9.515,26.481L9.631,26.307L9.749,26.135L9.869,25.965L9.99,25.796L10.114,25.628L10.24,25.462L10.367,25.298L10.497,25.135L10.628,24.974L10.761,24.815L10.896,24.657L11.033,24.501L11.172,24.346L11.313,24.193L11.455,24.042L11.599,23.893L11.745,23.745L11.893,23.599L12.042,23.455L12.193,23.313L12.346,23.172L12.501,23.033L12.657,22.896L12.815,22.761L12.974,22.628L13.135,22.497L13.298,22.367L13.462,22.24L13.628,22.114L13.796,21.99L13.965,21.869L14.135,21.749L14.307,21.631L14.481,21.515L14.656,21.402L14.832,21.29L15.01,21.18L15.19,21.073L15.37,20.967L15.553,20.864L15.736,20.763L15.921,20.664L16.107,20.567L16.295,20.472L16.484,20.379L16.674,20.289L16.866,20.201L17.059,20.115L17.253,20.032L17.448,19.95L17.645,19.871L17.842,19.795L18.041,19.721L18.241,19.649L18.442,19.579L18.645,19.512L18.848,19.447L19.052,19.385L19.258,19.325L19.464,19.268L19.672,19.213L19.88,19.161L20.09,19.111L20.3,19.064L20.512,19.019L20.724,18.977L20.937,18.937L21.151,18.901L21.366,18.866L21.582,18.835L21.798,18.806L22.015,18.78L22.233,18.756L22.452,18.735L22.671,18.717L22.891,18.702L23.112,18.689L23.333,18.679L23.555,18.672L23.777,18.668L24,18.667L24.223,18.668ZM23.832,23.001L23.665,23.004L23.498,23.01L23.331,23.017L23.166,23.026L23,23.038L22.836,23.052L22.672,23.067L22.508,23.085L22.345,23.105L22.183,23.126L22.021,23.15L21.86,23.176L21.7,23.203L21.54,23.233L21.381,23.264L21.223,23.298L21.066,23.333L20.909,23.37L20.753,23.41L20.597,23.451L20.443,23.494L20.289,23.538L20.136,23.585L19.984,23.633L19.832,23.684L19.682,23.736L19.532,23.789L19.383,23.845L19.235,23.902L19.088,23.961L18.942,24.022L18.797,24.085L18.652,24.149L18.509,24.215L18.366,24.283L18.224,24.352L18.084,24.423L17.944,24.496L17.806,24.57L17.668,24.646L17.531,24.723L17.396,24.802L17.261,24.883L17.128,24.965L16.995,25.049L16.864,25.135L16.734,25.221L16.605,25.31L16.477,25.4L16.35,25.491L16.224,25.584L16.099,25.678L15.976,25.774L15.854,25.871L15.733,25.97L15.613,26.07L15.494,26.172L15.377,26.275L15.261,26.379L15.146,26.484L15.033,26.591L14.92,26.7L14.809,26.809L14.7,26.92L14.591,27.033L14.484,27.146L14.379,27.261L14.275,27.377L14.172,27.494L14.07,27.613L13.97,27.733L13.871,27.854L13.774,27.976L13.678,28.099L13.584,28.224L13.491,28.35L13.4,28.477L13.31,28.605L13.221,28.734L13.135,28.864L13.049,28.995L12.965,29.128L12.883,29.261L12.802,29.396L12.723,29.531L12.646,29.668L12.57,29.806L12.496,29.944L12.423,30.084L12.352,30.224L12.283,30.366L12.215,30.509L12.149,30.652L12.085,30.797L12.022,30.942L11.961,31.088L11.902,31.235L11.845,31.383L11.789,31.532L11.736,31.682L11.684,31.832L11.633,31.984L11.585,32.136L11.538,32.289L11.494,32.443L11.451,32.597L11.41,32.753L11.37,32.909L11.333,33.066L11.298,33.223L11.264,33.381L11.233,33.54L11.203,33.7L11.176,33.86L11.15,34.021L11.126,34.183L11.105,34.345L11.085,34.508L11.067,34.672L11.052,34.836L11.038,35L11.026,35.166L11.017,35.331L11.01,35.498L11.004,35.665L11.001,35.832L11,36L11.001,36.168L11.004,36.335L11.01,36.502L11.017,36.669L11.026,36.834L11.038,37L11.052,37.164L11.067,37.328L11.085,37.492L11.105,37.655L11.126,37.817L11.15,37.979L11.176,38.14L11.203,38.3L11.233,38.46L11.264,38.619L11.298,38.777L11.333,38.934L11.37,39.091L11.41,39.247L11.451,39.403L11.494,39.557L11.538,39.711L11.585,39.864L11.633,40.016L11.684,40.168L11.736,40.318L11.789,40.468L11.845,40.617L11.902,40.765L11.961,40.912L12.022,41.058L12.085,41.203L12.149,41.348L12.215,41.491L12.283,41.634L12.352,41.776L12.423,41.916L12.496,42.056L12.57,42.194L12.646,42.332L12.723,42.469L12.802,42.604L12.883,42.739L12.965,42.872L13.049,43.005L13.135,43.136L13.221,43.266L13.31,43.395L13.4,43.523L13.491,43.65L13.584,43.776L13.678,43.901L13.774,44.024L13.871,44.146L13.97,44.267L14.07,44.387L14.172,44.506L14.275,44.623L14.379,44.739L14.484,44.854L14.591,44.967L14.7,45.08L14.809,45.191L14.92,45.3L15.033,45.409L15.146,45.516L15.261,45.621L15.377,45.725L15.494,45.828L15.613,45.93L15.733,46.03L15.854,46.129L15.976,46.226L16.099,46.322L16.224,46.416L16.35,46.509L16.477,46.6L16.605,46.69L16.734,46.779L16.864,46.865L16.995,46.951L17.128,47.035L17.261,47.117L17.396,47.198L17.531,47.277L17.668,47.354L17.806,47.43L17.944,47.504L18.084,47.577L18.224,47.648L18.366,47.717L18.509,47.785L18.652,47.851L18.797,47.915L18.942,47.978L19.088,48.039L19.235,48.098L19.383,48.155L19.532,48.211L19.682,48.264L19.832,48.316L19.984,48.367L20.136,48.415L20.289,48.462L20.443,48.506L20.597,48.549L20.753,48.59L20.909,48.63L21.066,48.667L21.223,48.702L21.381,48.736L21.54,48.767L21.7,48.797L21.86,48.824L22.021,48.85L22.183,48.874L22.345,48.895L22.508,48.915L22.672,48.933L22.836,48.948L23,48.962L23.166,48.974L23.331,48.983L23.498,48.99L23.665,48.996L23.832,48.999L24,49L24.168,48.999L24.335,48.996L24.502,48.99L24.669,48.983L24.834,48.974L25,48.962L25.164,48.948L25.328,48.933L25.492,48.915L25.655,48.895L25.817,48.874L25.979,48.85L26.14,48.824L26.3,48.797L26.46,48.767L26.619,48.736L26.777,48.702L26.934,48.667L27.091,48.63L27.247,48.59L27.403,48.549L27.557,48.506L27.711,48.462L27.864,48.415L28.016,48.367L28.168,48.316L28.318,48.264L28.468,48.211L28.617,48.155L28.765,48.098L28.912,48.039L29.058,47.978L29.203,47.915L29.348,47.851L29.491,47.785L29.634,47.717L29.776,47.648L29.916,47.577L30.056,47.504L30.194,47.43L30.332,47.354L30.469,47.277L30.604,47.198L30.739,47.117L30.872,47.035L31.005,46.951L31.136,46.865L31.266,46.779L31.395,46.69L31.523,46.6L31.65,46.509L31.776,46.416L31.901,46.322L32.024,46.226L32.146,46.129L32.267,46.03L32.387,45.93L32.506,45.828L32.623,45.725L32.739,45.621L32.854,45.516L32.967,45.409L33.08,45.3L33.191,45.191L33.3,45.08L33.409,44.967L33.516,44.854L33.621,44.739L33.725,44.623L33.828,44.506L33.93,44.387L34.03,44.267L34.129,44.146L34.226,44.024L34.322,43.901L34.416,43.776L34.509,43.65L34.6,43.523L34.69,43.395L34.779,43.266L34.865,43.136L34.951,43.005L35.035,42.872L35.117,42.739L35.198,42.604L35.277,42.469L35.354,42.332L35.43,42.194L35.504,42.056L35.577,41.916L35.648,41.776L35.717,41.634L35.785,41.491L35.851,41.348L35.915,41.203L35.978,41.058L36.039,40.912L36.098,40.765L36.155,40.617L36.211,40.468L36.264,40.318L36.316,40.168L36.367,40.016L36.415,39.864L36.462,39.711L36.506,39.557L36.549,39.403L36.59,39.247L36.63,39.091L36.667,38.934L36.702,38.777L36.736,38.619L36.767,38.46L36.797,38.3L36.824,38.14L36.85,37.979L36.874,37.817L36.895,37.655L36.915,37.492L36.933,37.328L36.948,37.164L36.962,37L36.974,36.834L36.983,36.669L36.99,36.502L36.996,36.335L36.999,36.168L37,36L36.999,35.832L36.996,35.665L36.99,35.498L36.983,35.331L36.974,35.166L36.962,35L36.948,34.836L36.933,34.672L36.915,34.508L36.895,34.345L36.874,34.183L36.85,34.021L36.824,33.86L36.797,33.7L36.767,33.54L36.736,33.381L36.702,33.223L36.667,33.066L36.63,32.909L36.59,32.753L36.549,32.597L36.506,32.443L36.462,32.289L36.415,32.136L36.367,31.984L36.316,31.832L36.264,31.682L36.211,31.532L36.155,31.383L36.098,31.235L36.039,31.088L35.978,30.942L35.915,30.797L35.851,30.652L35.785,30.509L35.717,30.366L35.648,30.224L35.577,30.084L35.504,29.944L35.43,29.806L35.354,29.668L35.277,29.531L35.198,29.396L35.117,29.261L35.035,29.128L34.951,28.995L34.865,28.864L34.779,28.734L34.69,28.605L34.6,28.477L34.509,28.35L34.416,28.224L34.322,28.099L34.226,27.976L34.129,27.854L34.03,27.733L33.93,27.613L33.828,27.494L33.725,27.377L33.621,27.261L33.516,27.146L33.409,27.033L33.3,26.92L33.191,26.809L33.08,26.7L32.967,26.591L32.854,26.484L32.739,26.379L32.623,26.275L32.506,26.172L32.387,26.07L32.267,25.97L32.146,25.871L32.024,25.774L31.901,25.678L31.776,25.584L31.65,25.491L31.523,25.4L31.395,25.31L31.266,25.221L31.136,25.135L31.005,25.049L30.872,24.965L30.739,24.883L30.604,24.802L30.469,24.723L30.332,24.646L30.194,24.57L30.056,24.496L29.916,24.423L29.776,24.352L29.634,24.283L29.491,24.215L29.348,24.149L29.203,24.085L29.058,24.022L28.912,23.961L28.765,23.902L28.617,23.845L28.468,23.789L28.318,23.736L28.168,23.684L28.016,23.633L27.864,23.585L27.711,23.538L27.557,23.494L27.403,23.451L27.247,23.41L27.091,23.37L26.934,23.333L26.777,23.298L26.619,23.264L26.46,23.233L26.3,23.203L26.14,23.176L25.979,23.15L25.817,23.126L25.655,23.105L25.492,23.085L25.328,23.067L25.164,23.052L25,23.038L24.834,23.026L24.669,23.017L24.502,23.01L24.335,23.004L24.168,23.001L24,23L23.832,23.001Z" style="fill:white;"/>
    </g>
    <g transform="matrix(1.4,0,0,0.8,-10.7,-1)">
        <path d="M25.5,5C26.617,5.061 33,17.958 33,20C33,22.042 28,17.25 25.5,17.25C23,17.25 18,22.042 18,20C18,17.958 24.088,5.097 25.5,5" style="fill:rgb(255,73,97);stroke:white;stroke-width:3.51px;"/>
    </g>
    <defs>
        <radialGradient id="_Radial1" cx="0" cy="0" r="1" gradientUnits="userSpaceOnUse" gradientTransform="matrix(13,0,0,13,24,36)"><stop offset="0%" style="stop-color:rgb(255,73,97);stop-opacity:1"/><stop offset="100%" style="stop-color:rgb(255,73,97);stop-opacity:1"/></radialGradient>
    </defs>
</svg>
