<?xml version="1.0" encoding="UTF-8" standalone="no"?>
<!DOCTYPE svg PUBLIC "-//W3C//DTD SVG 1.1//EN" "http://www.w3.org/Graphics/SVG/1.1/DTD/svg11.dtd">
<svg width="100%" height="100%" viewBox="0 0 50 50" version="1.1" xmlns="http://www.w3.org/2000/svg" xmlns:xlink="http://www.w3.org/1999/xlink" xml:space="preserve" style="fill-rule:evenodd;clip-rule:evenodd;stroke-linejoin:round;stroke-miterlimit:1.41421;">
    <g transform="matrix(1.53846,0,0,1.53846,-11.9231,-30.3846)">
        <circle cx="24" cy="36" r="13" style="fill:url(#_Radial1);"/>
        <path d="M24.101,20.4L24.201,20.401L24.301,20.403L24.401,20.405L24.501,20.408L24.601,20.411L24.701,20.416L24.8,20.42L24.9,20.426L24.999,20.432L25.098,20.438L25.197,20.445L25.296,20.453L25.395,20.462L25.493,20.471L25.591,20.48L25.69,20.491L25.788,20.502L25.885,20.513L25.983,20.525L26.081,20.538L26.178,20.551L26.275,20.565L26.372,20.58L26.469,20.595L26.565,20.611L26.661,20.627L26.758,20.644L26.854,20.661L26.949,20.679L27.045,20.698L27.14,20.717L27.236,20.737L27.33,20.757L27.425,20.778L27.52,20.8L27.614,20.822L27.708,20.845L27.802,20.868L27.896,20.892L27.989,20.916L28.082,20.941L28.175,20.967L28.268,20.993L28.361,21.019L28.453,21.046L28.545,21.074L28.637,21.102L28.728,21.131L28.82,21.161L28.911,21.19L29.002,21.221L29.092,21.252L29.183,21.283L29.273,21.316L29.362,21.348L29.452,21.381L29.541,21.415L29.63,21.449L29.723,21.485L29.896,21.555L30.072,21.628L30.246,21.703L30.42,21.78L30.592,21.859L30.763,21.941L30.933,22.024L31.102,22.109L31.27,22.196L31.436,22.286L31.601,22.377L31.765,22.47L31.928,22.565L32.089,22.661L32.25,22.76L32.408,22.861L32.566,22.963L32.722,23.067L32.877,23.173L33.031,23.281L33.183,23.391L33.333,23.502L33.483,23.615L33.631,23.73L33.777,23.847L33.922,23.965L34.066,24.085L34.208,24.207L34.349,24.33L34.488,24.455L34.625,24.581L34.762,24.71L34.896,24.839L35.029,24.971L35.161,25.104L35.29,25.238L35.419,25.375L35.545,25.512L35.67,25.651L35.793,25.792L35.915,25.934L36.035,26.078L36.153,26.223L36.27,26.369L36.385,26.517L36.498,26.667L36.609,26.817L36.719,26.969L36.827,27.123L36.933,27.278L37.037,27.434L37.139,27.592L37.24,27.75L37.339,27.911L37.435,28.072L37.53,28.235L37.623,28.399L37.714,28.564L37.804,28.73L37.891,28.898L37.976,29.067L38.059,29.237L38.141,29.408L38.22,29.58L38.297,29.754L38.372,29.928L38.445,30.104L38.515,30.277L38.551,30.37L38.585,30.459L38.619,30.548L38.652,30.637L38.684,30.727L38.717,30.817L38.748,30.908L38.779,30.998L38.81,31.089L38.839,31.18L38.869,31.272L38.898,31.363L38.926,31.455L38.954,31.547L38.981,31.639L39.007,31.732L39.033,31.825L39.059,31.918L39.084,32.011L39.108,32.104L39.132,32.198L39.155,32.292L39.178,32.386L39.2,32.48L39.222,32.575L39.243,32.67L39.263,32.764L39.283,32.86L39.302,32.955L39.321,33.051L39.339,33.146L39.356,33.242L39.373,33.339L39.389,33.435L39.405,33.531L39.42,33.628L39.435,33.725L39.449,33.822L39.462,33.92L39.475,34.017L39.487,34.115L39.498,34.212L39.509,34.31L39.52,34.409L39.529,34.507L39.538,34.605L39.547,34.704L39.555,34.803L39.562,34.902L39.568,35.001L39.574,35.1L39.58,35.2L39.584,35.299L39.589,35.399L39.592,35.499L39.595,35.599L39.597,35.699L39.599,35.799L39.6,35.9L39.6,36L39.6,36.1L39.599,36.201L39.597,36.301L39.595,36.401L39.592,36.501L39.589,36.601L39.584,36.701L39.58,36.8L39.574,36.9L39.568,36.999L39.562,37.098L39.555,37.197L39.547,37.296L39.538,37.395L39.529,37.493L39.52,37.591L39.509,37.69L39.498,37.788L39.487,37.885L39.475,37.983L39.462,38.08L39.449,38.178L39.435,38.275L39.42,38.372L39.405,38.469L39.389,38.565L39.373,38.661L39.356,38.758L39.339,38.854L39.321,38.949L39.302,39.045L39.283,39.14L39.263,39.236L39.243,39.33L39.222,39.425L39.2,39.52L39.178,39.614L39.155,39.708L39.132,39.802L39.108,39.896L39.084,39.989L39.059,40.082L39.033,40.175L39.007,40.268L38.981,40.361L38.954,40.453L38.926,40.545L38.898,40.637L38.869,40.728L38.839,40.82L38.81,40.911L38.779,41.002L38.748,41.092L38.717,41.183L38.684,41.273L38.652,41.363L38.619,41.452L38.585,41.541L38.551,41.63L38.515,41.723L38.445,41.896L38.372,42.072L38.297,42.246L38.22,42.42L38.141,42.592L38.059,42.763L37.976,42.933L37.891,43.102L37.804,43.27L37.714,43.436L37.623,43.601L37.53,43.765L37.435,43.928L37.339,44.089L37.24,44.25L37.139,44.408L37.037,44.566L36.933,44.722L36.827,44.877L36.719,45.031L36.609,45.183L36.498,45.333L36.385,45.483L36.27,45.631L36.153,45.777L36.035,45.922L35.915,46.066L35.793,46.208L35.67,46.349L35.545,46.488L35.419,46.625L35.29,46.762L35.161,46.896L35.029,47.029L34.896,47.161L34.762,47.29L34.625,47.419L34.488,47.545L34.349,47.67L34.208,47.793L34.066,47.915L33.922,48.035L33.777,48.153L33.631,48.27L33.483,48.385L33.333,48.498L33.183,48.609L33.031,48.719L32.877,48.827L32.722,48.933L32.566,49.037L32.408,49.139L32.25,49.24L32.089,49.339L31.928,49.435L31.765,49.53L31.601,49.623L31.436,49.714L31.27,49.804L31.102,49.891L30.933,49.976L30.763,50.059L30.592,50.141L30.42,50.22L30.246,50.297L30.072,50.372L29.896,50.445L29.723,50.515L29.63,50.551L29.541,50.585L29.452,50.619L29.363,50.652L29.273,50.684L29.183,50.717L29.092,50.748L29.002,50.779L28.911,50.81L28.82,50.839L28.728,50.869L28.637,50.898L28.545,50.926L28.453,50.954L28.361,50.981L28.268,51.007L28.175,51.033L28.082,51.059L27.989,51.084L27.896,51.108L27.802,51.132L27.708,51.155L27.614,51.178L27.52,51.2L27.425,51.222L27.33,51.243L27.236,51.263L27.14,51.283L27.045,51.302L26.949,51.321L26.854,51.339L26.758,51.356L26.661,51.373L26.565,51.389L26.469,51.405L26.372,51.42L26.275,51.435L26.178,51.449L26.08,51.462L25.983,51.475L25.885,51.487L25.788,51.498L25.69,51.509L25.591,51.52L25.493,51.529L25.395,51.538L25.296,51.547L25.197,51.555L25.098,51.562L24.999,51.568L24.9,51.574L24.8,51.58L24.701,51.584L24.601,51.589L24.501,51.592L24.401,51.595L24.301,51.597L24.201,51.599L24.1,51.6L24,51.6L23.9,51.6L23.799,51.599L23.699,51.597L23.599,51.595L23.499,51.592L23.399,51.589L23.299,51.584L23.2,51.58L23.1,51.574L23.001,51.568L22.902,51.562L22.803,51.555L22.704,51.547L22.605,51.538L22.507,51.529L22.409,51.52L22.31,51.509L22.212,51.498L22.115,51.487L22.017,51.475L21.92,51.462L21.822,51.449L21.725,51.435L21.628,51.42L21.531,51.405L21.435,51.389L21.339,51.373L21.242,51.356L21.146,51.339L21.051,51.321L20.955,51.302L20.86,51.283L20.764,51.263L20.67,51.243L20.575,51.222L20.48,51.2L20.386,51.178L20.292,51.155L20.198,51.132L20.104,51.108L20.011,51.084L19.918,51.059L19.825,51.033L19.732,51.007L19.639,50.981L19.547,50.954L19.455,50.926L19.363,50.898L19.272,50.869L19.18,50.839L19.089,50.81L18.998,50.779L18.908,50.748L18.817,50.717L18.727,50.684L18.637,50.652L18.548,50.619L18.459,50.585L18.37,50.551L18.277,50.515L18.104,50.445L17.928,50.372L17.754,50.297L17.58,50.22L17.408,50.141L17.237,50.059L17.067,49.976L16.898,49.891L16.73,49.804L16.564,49.714L16.399,49.623L16.235,49.53L16.072,49.435L15.911,49.339L15.75,49.24L15.592,49.139L15.434,49.037L15.278,48.933L15.123,48.827L14.969,48.719L14.817,48.609L14.667,48.498L14.517,48.385L14.369,48.27L14.223,48.153L14.078,48.035L13.934,47.915L13.792,47.793L13.651,47.67L13.512,47.545L13.375,47.419L13.238,47.29L13.104,47.161L12.971,47.029L12.839,46.896L12.71,46.762L12.581,46.625L12.455,46.488L12.33,46.349L12.207,46.208L12.085,46.066L11.965,45.922L11.847,45.777L11.73,45.631L11.615,45.483L11.502,45.333L11.391,45.183L11.281,45.031L11.173,44.877L11.067,44.722L10.963,44.566L10.861,44.408L10.76,44.25L10.661,44.089L10.565,43.928L10.47,43.765L10.377,43.601L10.286,43.436L10.196,43.27L10.109,43.102L10.024,42.933L9.941,42.763L9.859,42.592L9.78,42.42L9.703,42.246L9.628,42.072L9.555,41.896L9.485,41.723L9.449,41.63L9.415,41.541L9.381,41.452L9.348,41.362L9.316,41.273L9.283,41.183L9.252,41.092L9.221,41.002L9.19,40.911L9.161,40.82L9.131,40.728L9.102,40.637L9.074,40.545L9.046,40.453L9.019,40.361L8.993,40.268L8.967,40.175L8.941,40.082L8.916,39.989L8.892,39.896L8.868,39.802L8.845,39.708L8.822,39.614L8.8,39.52L8.778,39.425L8.757,39.33L8.737,39.236L8.717,39.14L8.698,39.045L8.679,38.949L8.661,38.854L8.644,38.758L8.627,38.661L8.611,38.565L8.595,38.469L8.58,38.372L8.565,38.275L8.551,38.178L8.538,38.081L8.525,37.983L8.513,37.885L8.502,37.788L8.491,37.69L8.48,37.591L8.471,37.493L8.462,37.395L8.453,37.296L8.445,37.197L8.438,37.098L8.432,36.999L8.426,36.9L8.42,36.8L8.416,36.701L8.411,36.601L8.408,36.501L8.405,36.401L8.403,36.301L8.401,36.201L8.4,36.101L8.4,36L8.4,35.899L8.401,35.799L8.403,35.699L8.405,35.599L8.408,35.499L8.411,35.399L8.416,35.299L8.42,35.2L8.426,35.1L8.432,35.001L8.438,34.902L8.445,34.803L8.453,34.704L8.462,34.605L8.471,34.507L8.48,34.409L8.491,34.31L8.502,34.212L8.513,34.115L8.525,34.017L8.538,33.919L8.551,33.822L8.565,33.725L8.58,33.628L8.595,33.531L8.611,33.435L8.627,33.339L8.644,33.242L8.661,33.146L8.679,33.051L8.698,32.955L8.717,32.86L8.737,32.764L8.757,32.67L8.778,32.575L8.8,32.48L8.822,32.386L8.845,32.292L8.868,32.198L8.892,32.104L8.916,32.011L8.941,31.918L8.967,31.825L8.993,31.732L9.019,31.639L9.046,31.547L9.074,31.455L9.102,31.363L9.131,31.272L9.161,31.18L9.19,31.089L9.221,30.998L9.252,30.908L9.283,30.817L9.316,30.727L9.348,30.638L9.381,30.548L9.415,30.459L9.449,30.37L9.485,30.277L9.555,30.104L9.628,29.928L9.703,29.754L9.78,29.58L9.859,29.408L9.941,29.237L10.024,29.067L10.109,28.898L10.196,28.73L10.286,28.564L10.377,28.399L10.47,28.235L10.565,28.072L10.661,27.911L10.76,27.75L10.861,27.592L10.963,27.434L11.067,27.278L11.173,27.123L11.281,26.969L11.391,26.817L11.502,26.667L11.615,26.517L11.73,26.369L11.847,26.223L11.965,26.078L12.085,25.934L12.207,25.792L12.33,25.651L12.455,25.512L12.581,25.375L12.71,25.238L12.839,25.104L12.971,24.971L13.104,24.839L13.238,24.71L13.375,24.581L13.512,24.455L13.651,24.33L13.792,24.207L13.934,24.085L14.078,23.965L14.223,23.847L14.369,23.73L14.517,23.615L14.667,23.502L14.817,23.391L14.969,23.281L15.123,23.173L15.278,23.067L15.434,22.963L15.592,22.861L15.75,22.76L15.911,22.661L16.072,22.565L16.235,22.47L16.399,22.377L16.564,22.286L16.73,22.196L16.898,22.109L17.067,22.024L17.237,21.941L17.408,21.859L17.58,21.78L17.754,21.703L17.928,21.628L18.104,21.555L18.277,21.485L18.37,21.449L18.459,21.415L18.548,21.381L18.638,21.348L18.727,21.316L18.817,21.283L18.908,21.252L18.998,21.221L19.089,21.19L19.18,21.161L19.272,21.131L19.363,21.102L19.455,21.074L19.547,21.046L19.639,21.019L19.732,20.993L19.825,20.967L19.918,20.941L20.011,20.916L20.104,20.892L20.198,20.868L20.292,20.845L20.386,20.822L20.48,20.8L20.575,20.778L20.67,20.757L20.764,20.737L20.86,20.717L20.955,20.698L21.051,20.679L21.146,20.661L21.242,20.644L21.339,20.627L21.435,20.611L21.531,20.595L21.628,20.58L21.725,20.565L21.822,20.551L21.919,20.538L22.017,20.525L22.115,20.513L22.212,20.502L22.31,20.491L22.409,20.48L22.507,20.471L22.605,20.462L22.704,20.453L22.803,20.445L22.902,20.438L23.001,20.432L23.1,20.426L23.2,20.42L23.299,20.416L23.399,20.411L23.499,20.408L23.599,20.405L23.699,20.403L23.799,20.401L23.899,20.4L24,20.4L24.101,20.4ZM23.916,23L23.832,23.001L23.748,23.002L23.665,23.004L23.581,23.007L23.498,23.01L23.415,23.013L23.331,23.017L23.248,23.021L23.166,23.026L23.083,23.032L23,23.038L22.918,23.044L22.836,23.052L22.754,23.059L22.672,23.067L22.59,23.076L22.508,23.085L22.427,23.094L22.345,23.105L22.264,23.115L22.183,23.126L22.102,23.138L22.021,23.15L21.941,23.162L21.86,23.176L21.78,23.189L21.7,23.203L21.62,23.218L21.54,23.233L21.461,23.248L21.381,23.264L21.302,23.281L21.223,23.298L21.144,23.315L21.066,23.333L20.987,23.352L20.909,23.37L20.831,23.39L20.753,23.41L20.675,23.43L20.597,23.451L20.52,23.472L20.443,23.494L20.366,23.516L20.289,23.538L20.212,23.561L20.136,23.585L20.06,23.609L19.984,23.633L19.908,23.658L19.832,23.684L19.757,23.709L19.682,23.736L19.607,23.762L19.532,23.789L19.458,23.817L19.383,23.845L19.309,23.873L19.235,23.902L19.088,23.961L18.942,24.022L18.797,24.085L18.652,24.149L18.509,24.215L18.366,24.283L18.224,24.352L18.084,24.423L17.944,24.496L17.806,24.57L17.668,24.646L17.531,24.723L17.396,24.802L17.261,24.883L17.128,24.965L16.995,25.049L16.864,25.135L16.734,25.221L16.605,25.31L16.477,25.4L16.35,25.491L16.224,25.584L16.099,25.678L15.976,25.774L15.854,25.871L15.733,25.97L15.613,26.07L15.494,26.172L15.377,26.275L15.261,26.379L15.146,26.484L15.033,26.591L14.92,26.7L14.809,26.809L14.7,26.92L14.591,27.033L14.484,27.146L14.379,27.261L14.275,27.377L14.172,27.494L14.07,27.613L13.97,27.733L13.871,27.854L13.774,27.976L13.678,28.099L13.584,28.224L13.491,28.35L13.4,28.477L13.31,28.605L13.221,28.734L13.135,28.864L13.049,28.995L12.965,29.128L12.883,29.261L12.802,29.396L12.723,29.531L12.646,29.668L12.57,29.806L12.496,29.944L12.423,30.084L12.352,30.224L12.283,30.366L12.215,30.509L12.149,30.652L12.085,30.797L12.022,30.942L11.961,31.088L11.902,31.235L11.873,31.309L11.845,31.383L11.817,31.458L11.789,31.532L11.762,31.607L11.736,31.682L11.709,31.757L11.684,31.832L11.658,31.908L11.633,31.984L11.609,32.06L11.585,32.136L11.561,32.212L11.538,32.289L11.516,32.366L11.494,32.443L11.472,32.52L11.451,32.597L11.43,32.675L11.41,32.753L11.39,32.831L11.37,32.909L11.352,32.987L11.333,33.066L11.315,33.144L11.298,33.223L11.281,33.302L11.264,33.381L11.248,33.461L11.233,33.54L11.218,33.62L11.203,33.7L11.189,33.78L11.176,33.86L11.162,33.941L11.15,34.021L11.138,34.102L11.126,34.183L11.115,34.264L11.105,34.345L11.094,34.427L11.085,34.508L11.076,34.59L11.067,34.672L11.059,34.754L11.052,34.836L11.044,34.918L11.038,35L11.032,35.083L11.026,35.166L11.021,35.248L11.017,35.331L11.013,35.415L11.01,35.498L11.007,35.581L11.004,35.665L11.002,35.748L11.001,35.832L11,35.916L11,36L11,36.084L11.001,36.168L11.002,36.252L11.004,36.335L11.007,36.419L11.01,36.502L11.013,36.585L11.017,36.669L11.021,36.752L11.026,36.834L11.032,36.917L11.038,37L11.044,37.082L11.052,37.164L11.059,37.246L11.067,37.328L11.076,37.41L11.085,37.492L11.094,37.573L11.105,37.655L11.115,37.736L11.126,37.817L11.138,37.898L11.15,37.979L11.162,38.059L11.176,38.14L11.189,38.22L11.203,38.3L11.218,38.38L11.233,38.46L11.248,38.539L11.264,38.619L11.281,38.698L11.298,38.777L11.315,38.856L11.333,38.934L11.352,39.013L11.37,39.091L11.39,39.169L11.41,39.247L11.43,39.325L11.451,39.403L11.472,39.48L11.494,39.557L11.516,39.634L11.538,39.711L11.561,39.788L11.585,39.864L11.609,39.94L11.633,40.016L11.658,40.092L11.684,40.168L11.709,40.243L11.736,40.318L11.762,40.393L11.789,40.468L11.817,40.542L11.845,40.617L11.873,40.691L11.902,40.765L11.961,40.912L12.022,41.058L12.085,41.203L12.149,41.348L12.215,41.491L12.283,41.634L12.352,41.776L12.423,41.916L12.496,42.056L12.57,42.194L12.646,42.332L12.723,42.469L12.802,42.604L12.883,42.739L12.965,42.872L13.049,43.005L13.135,43.136L13.221,43.266L13.31,43.395L13.4,43.523L13.491,43.65L13.584,43.776L13.678,43.901L13.774,44.024L13.871,44.146L13.97,44.267L14.07,44.387L14.172,44.506L14.275,44.623L14.379,44.739L14.484,44.854L14.591,44.967L14.7,45.08L14.809,45.191L14.92,45.3L15.033,45.409L15.146,45.516L15.261,45.621L15.377,45.725L15.494,45.828L15.613,45.93L15.733,46.03L15.854,46.129L15.976,46.226L16.099,46.322L16.224,46.416L16.35,46.509L16.477,46.6L16.605,46.69L16.734,46.779L16.864,46.865L16.995,46.951L17.128,47.035L17.261,47.117L17.396,47.198L17.531,47.277L17.668,47.354L17.806,47.43L17.944,47.504L18.084,47.577L18.224,47.648L18.366,47.717L18.509,47.785L18.652,47.851L18.797,47.915L18.942,47.978L19.088,48.039L19.235,48.098L19.309,48.127L19.383,48.155L19.458,48.183L19.532,48.211L19.607,48.238L19.682,48.264L19.757,48.291L19.832,48.316L19.908,48.342L19.984,48.367L20.06,48.391L20.136,48.415L20.212,48.439L20.289,48.462L20.366,48.484L20.443,48.506L20.52,48.528L20.597,48.549L20.675,48.57L20.753,48.59L20.831,48.61L20.909,48.63L20.987,48.648L21.066,48.667L21.144,48.685L21.223,48.702L21.302,48.719L21.381,48.736L21.461,48.752L21.54,48.767L21.62,48.782L21.7,48.797L21.78,48.811L21.86,48.824L21.941,48.838L22.021,48.85L22.102,48.862L22.183,48.874L22.264,48.885L22.345,48.895L22.427,48.906L22.508,48.915L22.59,48.924L22.672,48.933L22.754,48.941L22.836,48.948L22.918,48.956L23,48.962L23.083,48.968L23.166,48.974L23.248,48.979L23.331,48.983L23.415,48.987L23.498,48.99L23.581,48.993L23.665,48.996L23.748,48.998L23.832,48.999L23.916,49L24,49L24.084,49L24.168,48.999L24.252,48.998L24.335,48.996L24.419,48.993L24.502,48.99L24.585,48.987L24.669,48.983L24.752,48.979L24.834,48.974L24.917,48.968L25,48.962L25.082,48.956L25.164,48.948L25.246,48.941L25.328,48.933L25.41,48.924L25.492,48.915L25.573,48.906L25.655,48.895L25.736,48.885L25.817,48.874L25.898,48.862L25.979,48.85L26.059,48.838L26.14,48.824L26.22,48.811L26.3,48.797L26.38,48.782L26.46,48.767L26.539,48.752L26.619,48.736L26.698,48.719L26.777,48.702L26.856,48.685L26.934,48.667L27.013,48.648L27.091,48.63L27.169,48.61L27.247,48.59L27.325,48.57L27.403,48.549L27.48,48.528L27.557,48.506L27.634,48.484L27.711,48.462L27.788,48.439L27.864,48.415L27.94,48.391L28.016,48.367L28.092,48.342L28.168,48.316L28.243,48.291L28.318,48.264L28.393,48.238L28.468,48.211L28.542,48.183L28.617,48.155L28.691,48.127L28.765,48.098L28.912,48.039L29.058,47.978L29.203,47.915L29.348,47.851L29.491,47.785L29.634,47.717L29.776,47.648L29.916,47.577L30.056,47.504L30.194,47.43L30.332,47.354L30.469,47.277L30.604,47.198L30.739,47.117L30.872,47.035L31.005,46.951L31.136,46.865L31.266,46.779L31.395,46.69L31.523,46.6L31.65,46.509L31.776,46.416L31.901,46.322L32.024,46.226L32.146,46.129L32.267,46.03L32.387,45.93L32.506,45.828L32.623,45.725L32.739,45.621L32.854,45.516L32.967,45.409L33.08,45.3L33.191,45.191L33.3,45.08L33.409,44.967L33.516,44.854L33.621,44.739L33.725,44.623L33.828,44.506L33.93,44.387L34.03,44.267L34.129,44.146L34.226,44.024L34.322,43.901L34.416,43.776L34.509,43.65L34.6,43.523L34.69,43.395L34.779,43.266L34.865,43.136L34.951,43.005L35.035,42.872L35.117,42.739L35.198,42.604L35.277,42.469L35.354,42.332L35.43,42.194L35.504,42.056L35.577,41.916L35.648,41.776L35.717,41.634L35.785,41.491L35.851,41.348L35.915,41.203L35.978,41.058L36.039,40.912L36.098,40.765L36.127,40.691L36.155,40.617L36.183,40.542L36.211,40.468L36.238,40.393L36.264,40.318L36.291,40.243L36.316,40.168L36.342,40.092L36.367,40.016L36.391,39.94L36.415,39.864L36.439,39.788L36.462,39.711L36.484,39.634L36.506,39.557L36.528,39.48L36.549,39.403L36.57,39.325L36.59,39.247L36.61,39.169L36.63,39.091L36.648,39.013L36.667,38.934L36.685,38.856L36.702,38.777L36.719,38.698L36.736,38.619L36.752,38.539L36.767,38.46L36.782,38.38L36.797,38.3L36.811,38.22L36.824,38.14L36.838,38.059L36.85,37.979L36.862,37.898L36.874,37.817L36.885,37.736L36.895,37.655L36.906,37.573L36.915,37.492L36.924,37.41L36.933,37.328L36.941,37.246L36.948,37.164L36.956,37.082L36.962,37L36.968,36.917L36.974,36.834L36.979,36.752L36.983,36.669L36.987,36.585L36.99,36.502L36.993,36.419L36.996,36.335L36.998,36.252L36.999,36.168L37,36.084L37,36L37,35.916L36.999,35.832L36.998,35.748L36.996,35.665L36.993,35.581L36.99,35.498L36.987,35.415L36.983,35.331L36.979,35.248L36.974,35.166L36.968,35.083L36.962,35L36.956,34.918L36.948,34.836L36.941,34.754L36.933,34.672L36.924,34.59L36.915,34.508L36.906,34.427L36.895,34.345L36.885,34.264L36.874,34.183L36.862,34.102L36.85,34.021L36.838,33.941L36.824,33.86L36.811,33.78L36.797,33.7L36.782,33.62L36.767,33.54L36.752,33.461L36.736,33.381L36.719,33.302L36.702,33.223L36.685,33.144L36.667,33.066L36.648,32.987L36.63,32.909L36.61,32.831L36.59,32.753L36.57,32.675L36.549,32.597L36.528,32.52L36.506,32.443L36.484,32.366L36.462,32.289L36.439,32.212L36.415,32.136L36.391,32.06L36.367,31.984L36.342,31.908L36.316,31.832L36.291,31.757L36.264,31.682L36.238,31.607L36.211,31.532L36.183,31.458L36.155,31.383L36.127,31.309L36.098,31.235L36.039,31.088L35.978,30.942L35.915,30.797L35.851,30.652L35.785,30.509L35.717,30.366L35.648,30.224L35.577,30.084L35.504,29.944L35.43,29.806L35.354,29.668L35.277,29.531L35.198,29.396L35.117,29.261L35.035,29.128L34.951,28.995L34.865,28.864L34.779,28.734L34.69,28.605L34.6,28.477L34.509,28.35L34.416,28.224L34.322,28.099L34.226,27.976L34.129,27.854L34.03,27.733L33.93,27.613L33.828,27.494L33.725,27.377L33.621,27.261L33.516,27.146L33.409,27.033L33.3,26.92L33.191,26.809L33.08,26.7L32.967,26.591L32.854,26.484L32.739,26.379L32.623,26.275L32.506,26.172L32.387,26.07L32.267,25.97L32.146,25.871L32.024,25.774L31.901,25.678L31.776,25.584L31.65,25.491L31.523,25.4L31.395,25.31L31.266,25.221L31.136,25.135L31.005,25.049L30.872,24.965L30.739,24.883L30.604,24.802L30.469,24.723L30.332,24.646L30.194,24.57L30.056,24.496L29.916,24.423L29.776,24.352L29.634,24.283L29.491,24.215L29.348,24.149L29.203,24.085L29.058,24.022L28.912,23.961L28.765,23.902L28.691,23.873L28.617,23.845L28.542,23.817L28.468,23.789L28.393,23.762L28.318,23.736L28.243,23.709L28.168,23.684L28.092,23.658L28.016,23.633L27.94,23.609L27.864,23.585L27.788,23.561L27.711,23.538L27.634,23.516L27.557,23.494L27.48,23.472L27.403,23.451L27.325,23.43L27.247,23.41L27.169,23.39L27.091,23.37L27.013,23.352L26.934,23.333L26.856,23.315L26.777,23.298L26.698,23.281L26.619,23.264L26.539,23.248L26.46,23.233L26.38,23.218L26.3,23.203L26.22,23.189L26.14,23.176L26.059,23.162L25.979,23.15L25.898,23.138L25.817,23.126L25.736,23.115L25.655,23.105L25.573,23.094L25.492,23.085L25.41,23.076L25.328,23.067L25.246,23.059L25.164,23.052L25.082,23.044L25,23.038L24.917,23.032L24.834,23.026L24.752,23.021L24.669,23.017L24.585,23.013L24.502,23.01L24.419,23.007L24.335,23.004L24.252,23.002L24.168,23.001L24.084,23L24,23L23.916,23Z" style="fill:white;"/>
    </g>
    <defs>
        <radialGradient id="_Radial1" cx="0" cy="0" r="1" gradientUnits="userSpaceOnUse" gradientTransform="matrix(13,0,0,13,24,36)"><stop offset="0%" style="stop-color:rgb(255,73,97);stop-opacity:1"/><stop offset="100%" style="stop-color:rgb(255,73,97);stop-opacity:1"/></radialGradient>
    </defs>
</svg>
